<svg width="18" height="18" viewBox="0 0 18 18" fill="none" xmlns="http://www.w3.org/2000/svg">
<path d="M17.4946 16.2564C17.5758 16.3377 17.6403 16.4342 17.6843 16.5405C17.7283 16.6467 17.751 16.7605 17.751 16.8755C17.751 16.9905 17.7283 17.1043 17.6843 17.2105C17.6403 17.3167 17.5758 17.4133 17.4946 17.4946C17.4133 17.5758 17.3167 17.6403 17.2105 17.6843C17.1043 17.7283 16.9905 17.751 16.8755 17.751C16.7605 17.751 16.6467 17.7283 16.5405 17.6843C16.4342 17.6403 16.3377 17.5758 16.2564 17.4946L9.00049 10.2375L1.74455 17.4946C1.58036 17.6587 1.35768 17.751 1.12549 17.751C0.893293 17.751 0.67061 17.6587 0.506424 17.4946C0.342238 17.3304 0.25 17.1077 0.25 16.8755C0.25 16.6433 0.342238 16.4206 0.506424 16.2564L7.76346 9.00049L0.506424 1.74455C0.342238 1.58036 0.25 1.35768 0.25 1.12549C0.25 0.893293 0.342238 0.67061 0.506424 0.506424C0.67061 0.342238 0.893293 0.25 1.12549 0.25C1.35768 0.25 1.58036 0.342238 1.74455 0.506424L9.00049 7.76346L16.2564 0.506424C16.4206 0.342238 16.6433 0.25 16.8755 0.25C17.1077 0.25 17.3304 0.342238 17.4946 0.506424C17.6587 0.67061 17.751 0.893293 17.751 1.12549C17.751 1.35768 17.6587 1.58036 17.4946 1.74455L10.2375 9.00049L17.4946 16.2564Z" fill="#313131"/>
</svg>
