<svg width="19" height="18" viewBox="0 0 19 18" fill="none" xmlns="http://www.w3.org/2000/svg">
<path d="M18.5 6.75C18.5 6.94891 18.421 7.13968 18.2803 7.28033C18.1397 7.42098 17.9489 7.5 17.75 7.5C17.5511 7.5 17.3603 7.42098 17.2197 7.28033C17.079 7.13968 17 6.94891 17 6.75V2.56125L10.7816 8.78063C10.6408 8.92136 10.45 9.00042 10.2509 9.00042C10.0519 9.00042 9.86104 8.92136 9.72031 8.78063C9.57958 8.6399 9.50052 8.44902 9.50052 8.25C9.50052 8.05098 9.57958 7.86011 9.72031 7.71938L15.9388 1.5H11.75C11.5511 1.5 11.3603 1.42098 11.2197 1.28033C11.079 1.13968 11 0.948912 11 0.75C11 0.551088 11.079 0.360322 11.2197 0.21967C11.3603 0.0790178 11.5511 0 11.75 0H17.75C17.9489 0 18.1397 0.0790178 18.2803 0.21967C18.421 0.360322 18.5 0.551088 18.5 0.75V6.75ZM14.75 9C14.5511 9 14.3603 9.07902 14.2197 9.21967C14.079 9.36032 14 9.55109 14 9.75V16.5H2V4.5H8.75C8.94891 4.5 9.13968 4.42098 9.28033 4.28033C9.42098 4.13968 9.5 3.94891 9.5 3.75C9.5 3.55109 9.42098 3.36032 9.28033 3.21967C9.13968 3.07902 8.94891 3 8.75 3H2C1.60218 3 1.22064 3.15804 0.93934 3.43934C0.658035 3.72064 0.5 4.10218 0.5 4.5V16.5C0.5 16.8978 0.658035 17.2794 0.93934 17.5607C1.22064 17.842 1.60218 18 2 18H14C14.3978 18 14.7794 17.842 15.0607 17.5607C15.342 17.2794 15.5 16.8978 15.5 16.5V9.75C15.5 9.55109 15.421 9.36032 15.2803 9.21967C15.1397 9.07902 14.9489 9 14.75 9Z" fill="white"/>
</svg>
