<svg width="16" height="20" viewBox="0 0 16 20" fill="none" xmlns="http://www.w3.org/2000/svg">
<path d="M0.858125 7.585C3.41313 7.585 5.82812 8.25 7.92812 9.37L15.4181 0.375H0.578125V18.225V7.585H0.858125Z" fill="#E9478B"/>
<path d="M7.92813 9.36914L0.578125 18.2241V19.6241H15.3831C14.5431 15.2141 11.7431 11.4691 7.92813 9.36914Z" fill="#3EBEB0"/>
<path d="M7.92812 9.36914L0.578125 18.2241V19.6241H3.20312L10.3431 11.0141C10.3431 11.0141 9.85313 10.6291 9.18813 10.1391C8.69813 9.78914 7.92812 9.36914 7.92812 9.36914Z" fill="#37A595"/>
<path d="M0.858125 7.58594H0.578125V18.2259L7.92812 9.37094C5.82812 8.25094 3.41313 7.58594 0.858125 7.58594Z" fill="#353535"/>
</svg>
