<svg width="129" height="33" viewBox="0 0 129 33" fill="none" xmlns="http://www.w3.org/2000/svg">
<path d="M2.95312 3.54688V13.5H1.07324V3.54688H2.95312ZM13.449 8.35254V12.2285C13.3032 12.4154 13.073 12.6182 12.7586 12.8369C12.4487 13.0557 12.0431 13.2448 11.5418 13.4043C11.0405 13.5592 10.4253 13.6367 9.69609 13.6367C9.06263 13.6367 8.48385 13.5319 7.95977 13.3223C7.43568 13.1081 6.98451 12.7959 6.60625 12.3857C6.22799 11.9756 5.93633 11.4743 5.73125 10.8818C5.52617 10.2894 5.42363 9.61263 5.42363 8.85156V8.19531C5.42363 7.43424 5.51934 6.75749 5.71074 6.16504C5.90671 5.57259 6.1847 5.07129 6.54473 4.66113C6.90931 4.25098 7.34453 3.9388 7.85039 3.72461C8.36081 3.51042 8.93047 3.40332 9.55937 3.40332C10.4025 3.40332 11.0952 3.54232 11.6375 3.82031C12.1844 4.09831 12.6036 4.48112 12.8953 4.96875C13.187 5.45182 13.3693 6.00781 13.4422 6.63672H11.6102C11.56 6.29036 11.4598 5.9873 11.3094 5.72754C11.159 5.46322 10.9448 5.25814 10.6668 5.1123C10.3934 4.96191 10.0379 4.88672 9.60039 4.88672C9.23125 4.88672 8.9054 4.95964 8.62285 5.10547C8.3403 5.2513 8.10332 5.46322 7.91191 5.74121C7.72051 6.01921 7.57467 6.36328 7.47441 6.77344C7.37871 7.18359 7.33086 7.65299 7.33086 8.18164V8.85156C7.33086 9.38477 7.38555 9.85872 7.49492 10.2734C7.6043 10.6836 7.76152 11.0299 7.9666 11.3125C8.17624 11.5905 8.43372 11.8024 8.73906 11.9482C9.04896 12.0895 9.39987 12.1602 9.7918 12.1602C10.1473 12.1602 10.4412 12.1305 10.6736 12.0713C10.9106 12.0075 11.0997 11.9323 11.241 11.8457C11.3823 11.7591 11.4917 11.6748 11.5691 11.5928V9.72656H9.59355V8.35254H13.449ZM23.9244 3.54688V13.5H22.0377L17.8062 6.5957V13.5H15.9264V3.54688H17.8062L22.0514 10.458V3.54688H23.9244ZM28.5414 3.54688V13.5H26.6615V3.54688H28.5414ZM36.4807 10.916C36.4807 10.7246 36.451 10.5537 36.3918 10.4033C36.3371 10.2484 36.2346 10.1094 36.0842 9.98633C35.9383 9.85872 35.731 9.73568 35.4621 9.61719C35.1978 9.49414 34.856 9.36654 34.4367 9.23438C33.9719 9.08854 33.5389 8.92448 33.1379 8.74219C32.7368 8.5599 32.3837 8.34798 32.0783 8.10645C31.7775 7.86491 31.5428 7.58691 31.3742 7.27246C31.2056 6.95345 31.1213 6.58431 31.1213 6.16504C31.1213 5.75488 31.2079 5.38118 31.3811 5.04395C31.5588 4.70671 31.8094 4.41732 32.133 4.17578C32.4566 3.92969 32.8371 3.74056 33.2746 3.6084C33.7167 3.47624 34.2043 3.41016 34.7375 3.41016C35.4758 3.41016 36.1138 3.5446 36.6516 3.81348C37.1939 4.08236 37.6132 4.44694 37.9094 4.90723C38.2056 5.36751 38.3537 5.88477 38.3537 6.45898H36.4807C36.4807 6.14909 36.4146 5.87565 36.2824 5.63867C36.1548 5.40169 35.9589 5.21484 35.6945 5.07812C35.4348 4.94141 35.1066 4.87305 34.7102 4.87305C34.3273 4.87305 34.0083 4.93001 33.7531 5.04395C33.5025 5.15788 33.3133 5.31283 33.1857 5.50879C33.0627 5.70475 33.0012 5.9235 33.0012 6.16504C33.0012 6.34733 33.0445 6.51139 33.1311 6.65723C33.2176 6.7985 33.3475 6.93294 33.5207 7.06055C33.6939 7.18359 33.9081 7.2998 34.1633 7.40918C34.423 7.514 34.7238 7.61882 35.0656 7.72363C35.6125 7.8877 36.091 8.06999 36.5012 8.27051C36.9159 8.47103 37.26 8.69889 37.5334 8.9541C37.8114 9.20931 38.0187 9.49642 38.1555 9.81543C38.2967 10.1344 38.3674 10.4967 38.3674 10.9023C38.3674 11.3307 38.2831 11.7135 38.1145 12.0508C37.9458 12.388 37.7043 12.6751 37.3898 12.9121C37.0754 13.1491 36.6971 13.3291 36.2551 13.4521C35.8176 13.5752 35.3277 13.6367 34.7854 13.6367C34.3023 13.6367 33.8238 13.5729 33.3498 13.4453C32.8804 13.3132 32.4543 13.1172 32.0715 12.8574C31.6887 12.5931 31.3833 12.2604 31.1555 11.8594C30.9276 11.4538 30.8137 10.9798 30.8137 10.4375H32.7004C32.7004 10.752 32.7505 11.0208 32.8508 11.2441C32.9556 11.4629 33.1014 11.6429 33.2883 11.7842C33.4797 11.9209 33.703 12.0212 33.9582 12.085C34.2134 12.1488 34.4891 12.1807 34.7854 12.1807C35.1682 12.1807 35.4826 12.1283 35.7287 12.0234C35.9794 11.9141 36.1662 11.7637 36.2893 11.5723C36.4169 11.3809 36.4807 11.1621 36.4807 10.916ZM43.9756 8.52344V9.95215H40.2363V8.52344H43.9756ZM50.1854 9.87012H47.6219V8.39355H50.1854C50.6046 8.39355 50.9441 8.3252 51.2039 8.18848C51.4682 8.0472 51.6619 7.85579 51.785 7.61426C51.908 7.36816 51.9695 7.08789 51.9695 6.77344C51.9695 6.4681 51.908 6.18327 51.785 5.91895C51.6619 5.65462 51.4682 5.44043 51.2039 5.27637C50.9441 5.1123 50.6046 5.03027 50.1854 5.03027H48.2371V13.5H46.3572V3.54688H50.1854C50.9601 3.54688 51.6209 3.68587 52.1678 3.96387C52.7192 4.2373 53.1385 4.61784 53.4256 5.10547C53.7173 5.58854 53.8631 6.13997 53.8631 6.75977C53.8631 7.40234 53.7173 7.95605 53.4256 8.4209C53.1385 8.88574 52.7192 9.24349 52.1678 9.49414C51.6209 9.74479 50.9601 9.87012 50.1854 9.87012ZM57.817 3V13.5H56.0055V3H57.817ZM64.642 11.7432V6.10352H66.4604V13.5H64.7514L64.642 11.7432ZM64.8744 10.2119L65.435 10.1982C65.435 10.695 65.3803 11.153 65.2709 11.5723C65.1615 11.9915 64.9906 12.3561 64.7582 12.666C64.5303 12.9714 64.2409 13.2106 63.89 13.3838C63.5391 13.5524 63.1244 13.6367 62.6459 13.6367C62.2813 13.6367 61.9486 13.5866 61.6479 13.4863C61.3471 13.3815 61.0873 13.2197 60.8686 13.001C60.6544 12.7777 60.488 12.4928 60.3695 12.1465C60.251 11.7956 60.1918 11.374 60.1918 10.8818V6.10352H61.9965V10.8955C61.9965 11.1416 62.0238 11.3467 62.0785 11.5107C62.1378 11.6748 62.2175 11.8092 62.3178 11.9141C62.4226 12.0143 62.5434 12.0872 62.6801 12.1328C62.8214 12.1738 62.9717 12.1943 63.1312 12.1943C63.5687 12.1943 63.9128 12.1077 64.1635 11.9346C64.4187 11.7568 64.601 11.5199 64.7104 11.2236C64.8197 10.9229 64.8744 10.5856 64.8744 10.2119ZM72.8273 11.4766C72.8273 11.3216 72.7863 11.1826 72.7043 11.0596C72.6223 10.9365 72.4673 10.8249 72.2395 10.7246C72.0161 10.6198 71.688 10.5218 71.2551 10.4307C70.8723 10.3486 70.5191 10.2461 70.1955 10.123C69.8719 10 69.5939 9.85189 69.3615 9.67871C69.1291 9.50098 68.9468 9.29362 68.8147 9.05664C68.687 8.8151 68.6232 8.53711 68.6232 8.22266C68.6232 7.91732 68.6893 7.63021 68.8215 7.36133C68.9536 7.08789 69.1451 6.84863 69.3957 6.64355C69.6464 6.43392 69.9517 6.26986 70.3117 6.15137C70.6717 6.02832 71.0773 5.9668 71.5285 5.9668C72.1574 5.9668 72.6975 6.06934 73.1486 6.27441C73.6044 6.47949 73.953 6.76204 74.1945 7.12207C74.4361 7.47754 74.5568 7.87858 74.5568 8.3252H72.7522C72.7522 8.12923 72.7066 7.9515 72.6154 7.79199C72.5288 7.63249 72.3944 7.50488 72.2121 7.40918C72.0298 7.30892 71.7997 7.25879 71.5217 7.25879C71.271 7.25879 71.0591 7.2998 70.8859 7.38184C70.7173 7.46387 70.5897 7.57096 70.5031 7.70312C70.4165 7.83529 70.3732 7.98112 70.3732 8.14062C70.3732 8.25911 70.396 8.36621 70.4416 8.46191C70.4917 8.55306 70.5715 8.63737 70.6809 8.71484C70.7902 8.79232 70.9383 8.86296 71.1252 8.92676C71.3166 8.99056 71.5513 9.05208 71.8293 9.11133C72.3807 9.2207 72.8615 9.36654 73.2717 9.54883C73.6864 9.72656 74.01 9.96354 74.2424 10.2598C74.4748 10.556 74.591 10.9342 74.591 11.3945C74.591 11.7227 74.5204 12.0234 74.3791 12.2969C74.2378 12.5658 74.0328 12.8005 73.7639 13.001C73.495 13.2015 73.1737 13.3587 72.8 13.4727C72.4263 13.582 72.0048 13.6367 71.5354 13.6367C70.8563 13.6367 70.2821 13.516 69.8127 13.2744C69.3433 13.0283 68.9878 12.7184 68.7463 12.3447C68.5048 11.9665 68.384 11.5745 68.384 11.1689H70.1135C70.1272 11.4561 70.2046 11.6862 70.3459 11.8594C70.4872 12.0326 70.6649 12.1579 70.8791 12.2354C71.0979 12.3083 71.328 12.3447 71.5695 12.3447C71.843 12.3447 72.0731 12.3083 72.26 12.2354C72.4468 12.1579 72.5881 12.0553 72.6838 11.9277C72.7795 11.7956 72.8273 11.6452 72.8273 11.4766Z" fill="#313131"/>
<path d="M4.36816 27.9893L7.30078 19.5469H8.72949L5.04492 29.5H4.02637L4.36816 27.9893ZM1.62695 19.5469L4.53223 27.9893L4.89453 29.5H3.87598L0.198242 19.5469H1.62695ZM13.3465 29.6367C12.8315 29.6367 12.3644 29.5501 11.9451 29.377C11.5304 29.1992 11.1727 28.9508 10.8719 28.6318C10.5757 28.3128 10.3478 27.9346 10.1883 27.4971C10.0288 27.0596 9.94902 26.5811 9.94902 26.0615V25.7744C9.94902 25.1729 10.0379 24.6374 10.2156 24.168C10.3934 23.694 10.6349 23.293 10.9402 22.9648C11.2456 22.6367 11.5919 22.3883 11.9793 22.2197C12.3667 22.0511 12.7677 21.9668 13.1824 21.9668C13.7111 21.9668 14.1668 22.0579 14.5496 22.2402C14.937 22.4225 15.2537 22.6777 15.4998 23.0059C15.7459 23.3294 15.9282 23.7122 16.0467 24.1543C16.1652 24.5918 16.2244 25.0703 16.2244 25.5898V26.1572H10.701V25.125H14.9598V25.0293C14.9415 24.7012 14.8732 24.3822 14.7547 24.0723C14.6408 23.7624 14.4585 23.5072 14.2078 23.3066C13.9572 23.1061 13.6154 23.0059 13.1824 23.0059C12.8953 23.0059 12.631 23.0674 12.3895 23.1904C12.1479 23.3089 11.9406 23.4867 11.7674 23.7236C11.5942 23.9606 11.4598 24.25 11.3641 24.5918C11.2684 24.9336 11.2205 25.3278 11.2205 25.7744V26.0615C11.2205 26.4124 11.2684 26.7428 11.3641 27.0527C11.4643 27.3581 11.6079 27.627 11.7947 27.8594C11.9861 28.0918 12.2163 28.2741 12.4852 28.4062C12.7586 28.5384 13.0685 28.6045 13.4148 28.6045C13.8615 28.6045 14.2397 28.5133 14.5496 28.3311C14.8595 28.1488 15.1307 27.9049 15.3631 27.5996L16.1287 28.208C15.9692 28.4495 15.7664 28.6797 15.5203 28.8984C15.2742 29.1172 14.9712 29.2949 14.6111 29.4316C14.2557 29.5684 13.8341 29.6367 13.3465 29.6367ZM19.6656 23.2656V29.5H18.401V22.1035H19.6314L19.6656 23.2656ZM21.9762 22.0625L21.9693 23.2383C21.8645 23.2155 21.7643 23.2018 21.6686 23.1973C21.5774 23.1882 21.4726 23.1836 21.3541 23.1836C21.0624 23.1836 20.8049 23.2292 20.5816 23.3203C20.3583 23.4115 20.1692 23.5391 20.0143 23.7031C19.8593 23.8672 19.7363 24.0632 19.6451 24.291C19.5585 24.5143 19.5016 24.7604 19.4742 25.0293L19.1187 25.2344C19.1187 24.7878 19.162 24.3685 19.2486 23.9766C19.3398 23.5846 19.4788 23.2383 19.6656 22.9375C19.8525 22.6322 20.0895 22.3952 20.3766 22.2266C20.6682 22.0534 21.0146 21.9668 21.4156 21.9668C21.5068 21.9668 21.6116 21.9782 21.7301 22.001C21.8486 22.0192 21.9306 22.0397 21.9762 22.0625ZM25.8412 28.1875L27.7416 22.1035H28.5756L28.4115 23.3135L26.477 29.5H25.6635L25.8412 28.1875ZM24.5629 22.1035L26.183 28.2559L26.2992 29.5H25.4447L23.2982 22.1035H24.5629ZM30.3939 28.208L31.9389 22.1035H33.1967L31.0502 29.5H30.2025L30.3939 28.208ZM28.7602 22.1035L30.6195 28.085L30.8314 29.5H30.0248L28.0355 23.2998L27.8715 22.1035H28.7602ZM39.5568 28.2354V24.4277C39.5568 24.1361 39.4976 23.8831 39.3791 23.6689C39.2652 23.4502 39.092 23.2816 38.8596 23.1631C38.6271 23.0446 38.34 22.9854 37.9982 22.9854C37.6792 22.9854 37.399 23.04 37.1574 23.1494C36.9204 23.2588 36.7336 23.4023 36.5969 23.5801C36.4647 23.7578 36.3986 23.9492 36.3986 24.1543H35.134C35.134 23.89 35.2023 23.6279 35.3391 23.3682C35.4758 23.1084 35.6717 22.8737 35.927 22.6641C36.1867 22.4499 36.4966 22.2812 36.8566 22.1582C37.2212 22.0306 37.6268 21.9668 38.0734 21.9668C38.6112 21.9668 39.0852 22.0579 39.4953 22.2402C39.91 22.4225 40.2336 22.6982 40.466 23.0674C40.703 23.432 40.8215 23.89 40.8215 24.4414V27.8867C40.8215 28.1328 40.842 28.3949 40.883 28.6729C40.9286 28.9508 40.9947 29.1901 41.0812 29.3906V29.5H39.7619C39.6981 29.3542 39.648 29.1605 39.6115 28.9189C39.5751 28.6729 39.5568 28.445 39.5568 28.2354ZM39.7756 25.0156L39.7893 25.9043H38.5109C38.1509 25.9043 37.8296 25.9339 37.5471 25.9932C37.2645 26.0479 37.0275 26.1322 36.8361 26.2461C36.6447 26.36 36.4989 26.5036 36.3986 26.6768C36.2984 26.8454 36.2482 27.0436 36.2482 27.2715C36.2482 27.5039 36.3007 27.7158 36.4055 27.9072C36.5103 28.0986 36.6675 28.2513 36.8771 28.3652C37.0913 28.4746 37.3534 28.5293 37.6633 28.5293C38.0507 28.5293 38.3924 28.4473 38.6887 28.2832C38.9849 28.1191 39.2196 27.9186 39.3928 27.6816C39.5705 27.4447 39.6662 27.2145 39.6799 26.9912L40.2199 27.5996C40.188 27.791 40.1014 28.0029 39.9602 28.2354C39.8189 28.4678 39.6298 28.6911 39.3928 28.9053C39.1604 29.1149 38.8824 29.2904 38.5588 29.4316C38.2398 29.5684 37.8798 29.6367 37.4787 29.6367C36.9774 29.6367 36.5376 29.5387 36.1594 29.3428C35.7857 29.1468 35.494 28.8848 35.2844 28.5566C35.0793 28.224 34.9768 27.8525 34.9768 27.4424C34.9768 27.0459 35.0542 26.6973 35.2092 26.3965C35.3641 26.0911 35.5874 25.8382 35.8791 25.6377C36.1708 25.4326 36.5217 25.2777 36.9318 25.1729C37.342 25.068 37.8 25.0156 38.3059 25.0156H39.7756ZM44.8848 19V29.5H43.6133V19H44.8848ZM50.7117 22.1035V23.0742H46.7127V22.1035H50.7117ZM48.0662 20.3057H49.3309V27.668C49.3309 27.9186 49.3696 28.1077 49.4471 28.2354C49.5245 28.363 49.6248 28.4473 49.7479 28.4883C49.8709 28.5293 50.0031 28.5498 50.1443 28.5498C50.2492 28.5498 50.3585 28.5407 50.4725 28.5225C50.591 28.4997 50.6798 28.4814 50.7391 28.4678L50.7459 29.5C50.6456 29.5319 50.5135 29.5615 50.3494 29.5889C50.1899 29.6208 49.9962 29.6367 49.7684 29.6367C49.4585 29.6367 49.1736 29.5752 48.9139 29.4521C48.6541 29.3291 48.4467 29.124 48.2918 28.8369C48.1414 28.5452 48.0662 28.1533 48.0662 27.6611V20.3057ZM57.4205 27.791V22.1035H58.692V29.5H57.482L57.4205 27.791ZM57.6598 26.2324L58.1861 26.2188C58.1861 26.7109 58.1337 27.1667 58.0289 27.5859C57.9286 28.0007 57.7646 28.3607 57.5367 28.666C57.3089 28.9714 57.0104 29.2106 56.6412 29.3838C56.2721 29.5524 55.8232 29.6367 55.2945 29.6367C54.9345 29.6367 54.6041 29.5843 54.3033 29.4795C54.0071 29.3747 53.7519 29.2129 53.5377 28.9941C53.3235 28.7754 53.1572 28.4906 53.0387 28.1396C52.9247 27.7887 52.8678 27.3672 52.8678 26.875V22.1035H54.1324V26.8887C54.1324 27.2214 54.1689 27.4971 54.2418 27.7158C54.3193 27.93 54.4218 28.1009 54.5494 28.2285C54.6816 28.3516 54.8274 28.4382 54.9869 28.4883C55.151 28.5384 55.3196 28.5635 55.4928 28.5635C56.0305 28.5635 56.4566 28.4609 56.7711 28.2559C57.0855 28.0462 57.3111 27.766 57.4479 27.415C57.5891 27.0596 57.6598 26.6654 57.6598 26.2324ZM62.5844 23.6826V29.5H61.3197V22.1035H62.516L62.5844 23.6826ZM62.2836 25.5215L61.7572 25.501C61.7618 24.9951 61.837 24.528 61.9828 24.0996C62.1286 23.6667 62.3337 23.2907 62.598 22.9717C62.8624 22.6527 63.1768 22.4066 63.5414 22.2334C63.9105 22.0557 64.3184 21.9668 64.765 21.9668C65.1296 21.9668 65.4577 22.0169 65.7494 22.1172C66.0411 22.2129 66.2895 22.3678 66.4945 22.582C66.7042 22.7962 66.8637 23.0742 66.973 23.416C67.0824 23.7533 67.1371 24.1657 67.1371 24.6533V29.5H65.8656V24.6396C65.8656 24.2523 65.8087 23.9424 65.6947 23.71C65.5808 23.473 65.4145 23.3021 65.1957 23.1973C64.977 23.0879 64.7081 23.0332 64.3891 23.0332C64.0746 23.0332 63.7875 23.0993 63.5277 23.2314C63.2725 23.3636 63.0515 23.5459 62.8646 23.7783C62.6824 24.0107 62.5388 24.2773 62.434 24.5781C62.3337 24.8743 62.2836 25.1888 62.2836 25.5215ZM74.55 22.1035H75.6984V29.3428C75.6984 29.9945 75.5663 30.5505 75.302 31.0107C75.0376 31.471 74.6685 31.8197 74.1945 32.0566C73.7251 32.2982 73.1828 32.4189 72.5676 32.4189C72.3124 32.4189 72.0116 32.3779 71.6652 32.2959C71.3234 32.2184 70.9862 32.084 70.6535 31.8926C70.3254 31.7057 70.0497 31.4528 69.8264 31.1338L70.4895 30.3818C70.7994 30.7555 71.1229 31.0153 71.4602 31.1611C71.802 31.307 72.1392 31.3799 72.4719 31.3799C72.8729 31.3799 73.2193 31.3047 73.5109 31.1543C73.8026 31.0039 74.0282 30.7806 74.1877 30.4844C74.3518 30.1927 74.4338 29.8327 74.4338 29.4043V23.7305L74.55 22.1035ZM69.4572 25.8838V25.7402C69.4572 25.1751 69.5233 24.6624 69.6555 24.2021C69.7922 23.7373 69.9859 23.3385 70.2365 23.0059C70.4917 22.6732 70.7994 22.418 71.1594 22.2402C71.5194 22.0579 71.925 21.9668 72.3762 21.9668C72.841 21.9668 73.2466 22.0488 73.593 22.2129C73.9439 22.3724 74.2401 22.6071 74.4816 22.917C74.7277 23.2223 74.9214 23.5915 75.0627 24.0244C75.204 24.4574 75.302 24.9473 75.3566 25.4941V26.123C75.3065 26.6654 75.2085 27.153 75.0627 27.5859C74.9214 28.0189 74.7277 28.388 74.4816 28.6934C74.2401 28.9987 73.9439 29.2334 73.593 29.3975C73.2421 29.557 72.8319 29.6367 72.3625 29.6367C71.9204 29.6367 71.5194 29.5433 71.1594 29.3564C70.8039 29.1696 70.4986 28.9076 70.2434 28.5703C69.9882 28.2331 69.7922 27.8366 69.6555 27.3809C69.5233 26.9206 69.4572 26.4215 69.4572 25.8838ZM70.7219 25.7402V25.8838C70.7219 26.2529 70.7583 26.5993 70.8313 26.9229C70.9087 27.2464 71.0249 27.5312 71.1799 27.7773C71.3394 28.0234 71.5422 28.2171 71.7883 28.3584C72.0344 28.4951 72.3283 28.5635 72.6701 28.5635C73.0894 28.5635 73.4357 28.4746 73.7092 28.2969C73.9826 28.1191 74.1991 27.8844 74.3586 27.5928C74.5227 27.3011 74.6503 26.9844 74.7414 26.6426V24.9951C74.6913 24.7445 74.6138 24.5029 74.509 24.2705C74.4087 24.0335 74.2766 23.8239 74.1125 23.6416C73.953 23.4548 73.7548 23.3066 73.5178 23.1973C73.2808 23.0879 73.0028 23.0332 72.6838 23.0332C72.3374 23.0332 72.0389 23.1061 71.7883 23.252C71.5422 23.3932 71.3394 23.5892 71.1799 23.8398C71.0249 24.0859 70.9087 24.373 70.8313 24.7012C70.7583 25.0247 70.7219 25.3711 70.7219 25.7402ZM82.626 27.5381C82.626 27.3558 82.585 27.1872 82.5029 27.0322C82.4255 26.8727 82.2637 26.7292 82.0176 26.6016C81.776 26.4694 81.4115 26.3555 80.9238 26.2598C80.5137 26.1732 80.1423 26.0706 79.8096 25.9521C79.4814 25.8337 79.2012 25.6901 78.9688 25.5215C78.7409 25.3529 78.5654 25.1546 78.4424 24.9268C78.3193 24.6989 78.2578 24.4323 78.2578 24.127C78.2578 23.8353 78.3216 23.5596 78.4492 23.2998C78.5814 23.04 78.766 22.8099 79.0029 22.6094C79.2445 22.4089 79.5339 22.2516 79.8711 22.1377C80.2083 22.0238 80.5843 21.9668 80.999 21.9668C81.5915 21.9668 82.0973 22.0716 82.5166 22.2812C82.9359 22.4909 83.2572 22.7712 83.4805 23.1221C83.7038 23.4684 83.8154 23.8535 83.8154 24.2773H82.5508C82.5508 24.0723 82.4893 23.874 82.3662 23.6826C82.2477 23.4867 82.0723 23.3249 81.8398 23.1973C81.612 23.0697 81.3317 23.0059 80.999 23.0059C80.6481 23.0059 80.3633 23.0605 80.1445 23.1699C79.9303 23.2747 79.7731 23.4092 79.6729 23.5732C79.5771 23.7373 79.5293 23.9105 79.5293 24.0928C79.5293 24.2295 79.5521 24.3525 79.5977 24.4619C79.6478 24.5667 79.7344 24.6647 79.8574 24.7559C79.9805 24.8424 80.1536 24.9245 80.377 25.002C80.6003 25.0794 80.8851 25.1569 81.2314 25.2344C81.8376 25.3711 82.3366 25.5352 82.7285 25.7266C83.1204 25.918 83.4121 26.1527 83.6035 26.4307C83.7949 26.7087 83.8906 27.0459 83.8906 27.4424C83.8906 27.766 83.8223 28.0622 83.6855 28.3311C83.5534 28.5999 83.3597 28.8324 83.1045 29.0283C82.8538 29.2197 82.5531 29.3701 82.2021 29.4795C81.8558 29.5843 81.4661 29.6367 81.0332 29.6367C80.3815 29.6367 79.8301 29.5205 79.3789 29.2881C78.9277 29.0557 78.5859 28.7549 78.3535 28.3857C78.1211 28.0166 78.0049 27.627 78.0049 27.2168H79.2764C79.2946 27.5632 79.3949 27.8389 79.5771 28.0439C79.7594 28.2445 79.9827 28.388 80.2471 28.4746C80.5114 28.5566 80.7734 28.5977 81.0332 28.5977C81.3796 28.5977 81.6689 28.5521 81.9014 28.4609C82.1383 28.3698 82.3184 28.2445 82.4414 28.085C82.5645 27.9255 82.626 27.7432 82.626 27.5381ZM89.2117 28.5977C89.5125 28.5977 89.7905 28.5361 90.0457 28.4131C90.3009 28.29 90.5105 28.1214 90.6746 27.9072C90.8387 27.6885 90.9321 27.4401 90.9549 27.1621H92.158C92.1352 27.5996 91.9871 28.0075 91.7137 28.3857C91.4448 28.7594 91.0916 29.0625 90.6541 29.2949C90.2166 29.5228 89.7358 29.6367 89.2117 29.6367C88.6557 29.6367 88.1704 29.5387 87.7557 29.3428C87.3455 29.1468 87.0037 28.8779 86.7303 28.5361C86.4614 28.1943 86.2586 27.8024 86.1219 27.3604C85.9897 26.9137 85.9236 26.4421 85.9236 25.9453V25.6582C85.9236 25.1615 85.9897 24.6921 86.1219 24.25C86.2586 23.8034 86.4614 23.4092 86.7303 23.0674C87.0037 22.7256 87.3455 22.4567 87.7557 22.2607C88.1704 22.0648 88.6557 21.9668 89.2117 21.9668C89.7905 21.9668 90.2964 22.0853 90.7293 22.3223C91.1622 22.5547 91.5018 22.8737 91.7478 23.2793C91.9985 23.6803 92.1352 24.1361 92.158 24.6465H90.9549C90.9321 24.3411 90.8455 24.0654 90.6951 23.8193C90.5493 23.5732 90.3488 23.3773 90.0936 23.2314C89.8429 23.0811 89.549 23.0059 89.2117 23.0059C88.8243 23.0059 88.4985 23.0833 88.2342 23.2383C87.9744 23.3887 87.7671 23.5938 87.6121 23.8535C87.4617 24.1087 87.3523 24.3936 87.284 24.708C87.2202 25.0179 87.1883 25.3346 87.1883 25.6582V25.9453C87.1883 26.2689 87.2202 26.5879 87.284 26.9023C87.3478 27.2168 87.4549 27.5016 87.6053 27.7568C87.7602 28.012 87.9676 28.2171 88.2273 28.3721C88.4917 28.5225 88.8198 28.5977 89.2117 28.5977ZM97.3492 29.6367C96.8342 29.6367 96.3671 29.5501 95.9479 29.377C95.5331 29.1992 95.1754 28.9508 94.8746 28.6318C94.5784 28.3128 94.3505 27.9346 94.191 27.4971C94.0315 27.0596 93.9518 26.5811 93.9518 26.0615V25.7744C93.9518 25.1729 94.0406 24.6374 94.2184 24.168C94.3961 23.694 94.6376 23.293 94.943 22.9648C95.2483 22.6367 95.5947 22.3883 95.982 22.2197C96.3694 22.0511 96.7704 21.9668 97.1852 21.9668C97.7138 21.9668 98.1695 22.0579 98.5523 22.2402C98.9397 22.4225 99.2564 22.6777 99.5025 23.0059C99.7486 23.3294 99.9309 23.7122 100.049 24.1543C100.168 24.5918 100.227 25.0703 100.227 25.5898V26.1572H94.7037V25.125H98.9625V25.0293C98.9443 24.7012 98.8759 24.3822 98.7574 24.0723C98.6435 23.7624 98.4612 23.5072 98.2105 23.3066C97.9599 23.1061 97.6181 23.0059 97.1852 23.0059C96.898 23.0059 96.6337 23.0674 96.3922 23.1904C96.1507 23.3089 95.9433 23.4867 95.7701 23.7236C95.5969 23.9606 95.4625 24.25 95.3668 24.5918C95.2711 24.9336 95.2232 25.3278 95.2232 25.7744V26.0615C95.2232 26.4124 95.2711 26.7428 95.3668 27.0527C95.4671 27.3581 95.6106 27.627 95.7975 27.8594C95.9889 28.0918 96.219 28.2741 96.4879 28.4062C96.7613 28.5384 97.0712 28.6045 97.4176 28.6045C97.8642 28.6045 98.2424 28.5133 98.5523 28.3311C98.8622 28.1488 99.1334 27.9049 99.3658 27.5996L100.131 28.208C99.9719 28.4495 99.7691 28.6797 99.523 28.8984C99.277 29.1172 98.9739 29.2949 98.6139 29.4316C98.2584 29.5684 97.8369 29.6367 97.3492 29.6367ZM103.668 23.6826V29.5H102.404V22.1035H103.6L103.668 23.6826ZM103.368 25.5215L102.841 25.501C102.846 24.9951 102.921 24.528 103.067 24.0996C103.213 23.6667 103.418 23.2907 103.682 22.9717C103.946 22.6527 104.261 22.4066 104.625 22.2334C104.995 22.0557 105.402 21.9668 105.849 21.9668C106.214 21.9668 106.542 22.0169 106.833 22.1172C107.125 22.2129 107.373 22.3678 107.579 22.582C107.788 22.7962 107.948 23.0742 108.057 23.416C108.166 23.7533 108.221 24.1657 108.221 24.6533V29.5H106.95V24.6396C106.95 24.2523 106.893 23.9424 106.779 23.71C106.665 23.473 106.498 23.3021 106.28 23.1973C106.061 23.0879 105.792 23.0332 105.473 23.0332C105.159 23.0332 104.871 23.0993 104.612 23.2314C104.357 23.3636 104.135 23.5459 103.949 23.7783C103.766 24.0107 103.623 24.2773 103.518 24.5781C103.418 24.8743 103.368 25.1888 103.368 25.5215ZM113.939 22.1035V23.0742H109.94V22.1035H113.939ZM111.293 20.3057H112.558V27.668C112.558 27.9186 112.597 28.1077 112.674 28.2354C112.752 28.363 112.852 28.4473 112.975 28.4883C113.098 28.5293 113.23 28.5498 113.371 28.5498C113.476 28.5498 113.585 28.5407 113.699 28.5225C113.818 28.4997 113.907 28.4814 113.966 28.4678L113.973 29.5C113.873 29.5319 113.74 29.5615 113.576 29.5889C113.417 29.6208 113.223 29.6367 112.995 29.6367C112.685 29.6367 112.401 29.5752 112.141 29.4521C111.881 29.3291 111.674 29.124 111.519 28.8369C111.368 28.5452 111.293 28.1533 111.293 27.6611V20.3057ZM119.191 29.6367C118.676 29.6367 118.209 29.5501 117.79 29.377C117.375 29.1992 117.018 28.9508 116.717 28.6318C116.421 28.3128 116.193 27.9346 116.033 27.4971C115.874 27.0596 115.794 26.5811 115.794 26.0615V25.7744C115.794 25.1729 115.883 24.6374 116.061 24.168C116.238 23.694 116.48 23.293 116.785 22.9648C117.09 22.6367 117.437 22.3883 117.824 22.2197C118.212 22.0511 118.613 21.9668 119.027 21.9668C119.556 21.9668 120.012 22.0579 120.395 22.2402C120.782 22.4225 121.099 22.6777 121.345 23.0059C121.591 23.3294 121.773 23.7122 121.892 24.1543C122.01 24.5918 122.069 25.0703 122.069 25.5898V26.1572H116.546V25.125H120.805V25.0293C120.786 24.7012 120.718 24.3822 120.6 24.0723C120.486 23.7624 120.303 23.5072 120.053 23.3066C119.802 23.1061 119.46 23.0059 119.027 23.0059C118.74 23.0059 118.476 23.0674 118.234 23.1904C117.993 23.3089 117.785 23.4867 117.612 23.7236C117.439 23.9606 117.305 24.25 117.209 24.5918C117.113 24.9336 117.065 25.3278 117.065 25.7744V26.0615C117.065 26.4124 117.113 26.7428 117.209 27.0527C117.309 27.3581 117.453 27.627 117.64 27.8594C117.831 28.0918 118.061 28.2741 118.33 28.4062C118.604 28.5384 118.913 28.6045 119.26 28.6045C119.706 28.6045 120.085 28.5133 120.395 28.3311C120.704 28.1488 120.976 27.9049 121.208 27.5996L121.974 28.208C121.814 28.4495 121.611 28.6797 121.365 28.8984C121.119 29.1172 120.816 29.2949 120.456 29.4316C120.101 29.5684 119.679 29.6367 119.191 29.6367ZM125.511 23.2656V29.5H124.246V22.1035H125.476L125.511 23.2656ZM127.821 22.0625L127.814 23.2383C127.709 23.2155 127.609 23.2018 127.513 23.1973C127.422 23.1882 127.318 23.1836 127.199 23.1836C126.907 23.1836 126.65 23.2292 126.427 23.3203C126.203 23.4115 126.014 23.5391 125.859 23.7031C125.704 23.8672 125.581 24.0632 125.49 24.291C125.403 24.5143 125.346 24.7604 125.319 25.0293L124.964 25.2344C124.964 24.7878 125.007 24.3685 125.094 23.9766C125.185 23.5846 125.324 23.2383 125.511 22.9375C125.697 22.6322 125.934 22.3952 126.221 22.2266C126.513 22.0534 126.86 21.9668 127.261 21.9668C127.352 21.9668 127.457 21.9782 127.575 22.001C127.693 22.0192 127.776 22.0397 127.821 22.0625Z" fill="#313131"/>
</svg>
