
<svg width="18" height="20" viewBox="0 0 18 20" fill="none" xmlns="http://www.w3.org/2000/svg">
<path d="M16.5 0.75H1.5C1.10218 0.75 0.720644 0.908035 0.43934 1.18934C0.158035 1.47064 0 1.85218 0 2.25V7.76062C0 16.1616 7.10812 18.9487 8.53125 19.4222C8.8352 19.5255 9.1648 19.5255 9.46875 19.4222C10.8937 18.9487 18 16.1616 18 7.76062V2.25C18 1.85218 17.842 1.47064 17.5607 1.18934C17.2794 0.908035 16.8978 0.75 16.5 0.75ZM16.5 7.76156C16.5 15.1134 10.2797 17.5697 9 17.9972C7.73156 17.5744 1.5 15.12 1.5 7.76156V2.25H16.5V7.76156ZM4.71937 10.2806C4.57864 10.1399 4.49958 9.94902 4.49958 9.75C4.49958 9.55098 4.57864 9.3601 4.71937 9.21937C4.86011 9.07864 5.05098 8.99958 5.25 8.99958C5.44902 8.99958 5.63989 9.07864 5.78063 9.21937L7.5 10.9387L12.2194 6.21937C12.2891 6.14969 12.3718 6.09442 12.4628 6.0567C12.5539 6.01899 12.6515 5.99958 12.75 5.99958C12.8485 5.99958 12.9461 6.01899 13.0372 6.0567C13.1282 6.09442 13.2109 6.14969 13.2806 6.21937C13.3503 6.28906 13.4056 6.37178 13.4433 6.46283C13.481 6.55387 13.5004 6.65145 13.5004 6.75C13.5004 6.84855 13.481 6.94613 13.4433 7.03717C13.4056 7.12822 13.3503 7.21094 13.2806 7.28062L8.03063 12.5306C7.96097 12.6004 7.87825 12.6557 7.78721 12.6934C7.69616 12.7312 7.59856 12.7506 7.5 12.7506C7.40144 12.7506 7.30384 12.7312 7.21279 12.6934C7.12175 12.6557 7.03903 12.6004 6.96937 12.5306L4.71937 10.2806Z" fill="#555555"/>
</svg>
