<svg width="19" height="34" viewBox="0 0 21 36" fill="none" xmlns="http://www.w3.org/2000/svg">
<path d="M19.5915 31.4062C20.0141 31.8289 20.2516 32.4022 20.2516 33C20.2516 33.5978 20.0141 34.1711 19.5915 34.5937C19.1688 35.0164 18.5955 35.2539 17.9977 35.2539C17.3999 35.2539 16.8266 35.0164 16.404 34.5937L1.40396 19.5937C1.1942 19.3847 1.02777 19.1363 0.914206 18.8628C0.800644 18.5893 0.742188 18.2961 0.742188 18C0.742188 17.7039 0.800644 17.4106 0.914206 17.1372C1.02777 16.8637 1.1942 16.6153 1.40396 16.4062L16.404 1.40625C16.8266 0.983557 17.3999 0.746094 17.9977 0.746094C18.5955 0.746094 19.1688 0.983558 19.5915 1.40625C20.0141 1.82894 20.2516 2.40222 20.2516 3C20.2516 3.59777 20.0141 4.17106 19.5915 4.59375L6.18709 17.9981L19.5915 31.4062Z" fill="#313131"/>
</svg>
