<svg width="33" height="33" viewBox="0 0 33 33" fill="none" xmlns="http://www.w3.org/2000/svg">
<mask id="mask0_17_885" style="mask-type:luminance" maskUnits="userSpaceOnUse" x="0" y="0" width="33" height="33">
<path d="M33 0H0V33H33V0Z" fill="white"/>
</mask>
<g mask="url(#mask0_17_885)">
<path d="M14.6549 3.09375C14.6549 3.09375 16.0295 6.21697 8.05647 14.0643C7.46786 14.6438 6.95282 15.2952 6.53812 16.0057C4.83249 18.9193 2.59176 25.6143 14.2937 29.9062C14.2937 29.9062 8.69524 23.0574 17.5712 20.1176C17.5712 20.1176 16.2401 22.8577 18.9692 24.7271C21.6982 26.5997 20.1631 29.4381 20.1631 29.4381C20.1631 29.4381 30.1996 25.9188 27.3267 18.0551C27.31 18.0125 27.2966 17.9699 27.2833 17.9241C27.1361 17.469 25.9689 14.1199 22.2567 10.8363C22.2567 10.8363 21.8721 13.7696 18.6983 14.0185C18.6983 14.0185 22.5109 5.74881 14.6549 3.09375Z" fill="#FC6767"/>
</g>
</svg>
