 <svg width="219" height="43" viewBox="0 0 219 43" fill="none" xmlns="http://www.w3.org/2000/svg">
                    <mask id="mask0_255_9562" style="mask-type:luminance" maskUnits="userSpaceOnUse" x="0" y="0"
                        width="44" height="43">
                        <path d="M43.7266 0H0.726562V43H43.7266V0Z" fill="white" />
                    </mask>
                    <g mask="url(#mask0_255_9562)">
                        <path
                            d="M19.8185 4.03125C19.8185 4.03125 21.6095 8.10089 11.2205 18.3262C10.4535 19.0813 9.78239 19.9302 9.24202 20.8559C7.01954 24.6525 4.09979 33.3762 19.3478 38.9688C19.3478 38.9688 12.0528 30.0445 23.6185 26.2138C23.6185 26.2138 21.8841 29.7843 25.44 32.2201C28.996 34.6602 26.9958 38.3587 26.9958 38.3587C26.9958 38.3587 40.0736 33.7729 36.3302 23.5263C36.3084 23.4708 36.291 23.4154 36.2736 23.3557C36.0818 22.7627 34.561 18.3987 29.7238 14.12C29.7238 14.12 29.2226 17.9423 25.0871 18.2665C25.0871 18.2665 30.055 7.49087 19.8185 4.03125Z"
                            fill="#FC6767" />
                    </g>
                    <path
                        d="M55.391 4.53078V17.5H52.9414V4.53078H55.391ZM69.0675 10.7927V15.8432C68.8774 16.0867 68.5775 16.3509 68.1678 16.636C67.764 16.921 67.2355 17.1675 66.5823 17.3753C65.9291 17.5772 65.1274 17.6781 64.1773 17.6781C63.3519 17.6781 62.5977 17.5416 61.9148 17.2684C61.2319 16.9893 60.644 16.5825 60.1511 16.0481C59.6582 15.5136 59.2782 14.8604 59.011 14.0885C58.7437 13.3165 58.6101 12.4346 58.6101 11.4429V10.5878C58.6101 9.59614 58.7348 8.7143 58.9842 7.94232C59.2396 7.17035 59.6018 6.51713 60.0709 5.98269C60.546 5.44824 61.1131 5.04147 61.7723 4.76237C62.4374 4.48327 63.1796 4.34372 63.9991 4.34372C65.0977 4.34372 66.0003 4.52484 66.707 4.88707C67.4196 5.24931 67.9659 5.74813 68.346 6.38352C68.726 7.01298 68.9635 7.73745 69.0585 8.55694H66.6714C66.606 8.10563 66.4754 7.71073 66.2794 7.37225C66.0835 7.02783 65.8044 6.7606 65.4421 6.57058C65.0858 6.37462 64.6226 6.27663 64.0526 6.27663C63.5716 6.27663 63.147 6.37165 62.7788 6.56167C62.4106 6.7517 62.1018 7.02783 61.8524 7.39006C61.603 7.7523 61.413 8.20064 61.2824 8.73509C61.1577 9.26953 61.0953 9.88118 61.0953 10.57V11.4429C61.0953 12.1377 61.1666 12.7553 61.3091 13.2957C61.4516 13.8301 61.6565 14.2814 61.9237 14.6496C62.1969 15.0119 62.5324 15.288 62.9302 15.478C63.334 15.6621 63.7913 15.7541 64.302 15.7541C64.7652 15.7541 65.1482 15.7155 65.451 15.6383C65.7598 15.5552 66.0063 15.4572 66.1904 15.3444C66.3744 15.2316 66.517 15.1217 66.6179 15.0148V12.5831H64.0437V10.7927H69.0675ZM82.7172 4.53078V17.5H80.2588L74.7451 8.50349V17.5H72.2955V4.53078H74.7451L80.2766 13.5362V4.53078H82.7172ZM88.7333 4.53078V17.5H86.2837V4.53078H88.7333ZM99.0784 14.133C99.0784 13.8836 99.0398 13.6609 98.9626 13.4649C98.8913 13.263 98.7577 13.0819 98.5617 12.9216C98.3717 12.7553 98.1015 12.595 97.7512 12.4406C97.4067 12.2802 96.9614 12.114 96.4151 11.9418C95.8093 11.7517 95.2452 11.538 94.7226 11.3004C94.2001 11.0629 93.7399 10.7868 93.342 10.472C92.9501 10.1573 92.6442 9.79507 92.4245 9.38533C92.2048 8.96965 92.0949 8.48865 92.0949 7.94232C92.0949 7.40788 92.2078 6.92094 92.4334 6.4815C92.665 6.04207 92.9916 5.66499 93.4133 5.35026C93.8349 5.02959 94.3307 4.78315 94.9008 4.61094C95.4768 4.43873 96.1122 4.35263 96.807 4.35263C97.769 4.35263 98.6003 4.52781 99.3011 4.87817C100.008 5.22853 100.554 5.70359 100.94 6.30336C101.326 6.90312 101.519 7.57712 101.519 8.32534H99.0784C99.0784 7.92154 98.9923 7.56524 98.8201 7.25645C98.6538 6.94766 98.3984 6.70419 98.054 6.52604C97.7155 6.34789 97.288 6.25882 96.7714 6.25882C96.2725 6.25882 95.8569 6.33305 95.5243 6.4815C95.1977 6.62996 94.9513 6.83186 94.785 7.08721C94.6247 7.34256 94.5445 7.62759 94.5445 7.94232C94.5445 8.17986 94.6009 8.39363 94.7137 8.58366C94.8266 8.76775 94.9958 8.94293 95.2215 9.1092C95.4471 9.26953 95.7262 9.42096 96.0588 9.56348C96.3972 9.70006 96.7892 9.83664 97.2345 9.97322C97.9471 10.187 98.5707 10.4245 99.1051 10.6858C99.6455 10.9471 100.094 11.244 100.45 11.5766C100.812 11.9091 101.083 12.2832 101.261 12.6989C101.445 13.1146 101.537 13.5867 101.537 14.1152C101.537 14.6734 101.427 15.1722 101.207 15.6116C100.988 16.0511 100.673 16.4252 100.263 16.734C99.8533 17.0428 99.3604 17.2773 98.7844 17.4376C98.2144 17.598 97.576 17.6781 96.8693 17.6781C96.2399 17.6781 95.6164 17.595 94.9988 17.4287C94.3871 17.2565 93.8319 17.0012 93.3331 16.6627C92.8343 16.3183 92.4364 15.8848 92.1395 15.3622C91.8426 14.8337 91.6941 14.2161 91.6941 13.5095H94.1526C94.1526 13.9192 94.2179 14.2696 94.3485 14.5605C94.4851 14.8456 94.6751 15.0801 94.9186 15.2642C95.168 15.4424 95.459 15.573 95.7915 15.6562C96.1241 15.7393 96.4833 15.7809 96.8693 15.7809C97.3682 15.7809 97.7779 15.7126 98.0986 15.576C98.4252 15.4335 98.6686 15.2375 98.829 14.9881C98.9952 14.7387 99.0784 14.4537 99.0784 14.133ZM108.844 11.0154V12.877H103.972V11.0154H108.844ZM116.936 12.7702H113.596V10.8461H116.936C117.482 10.8461 117.925 10.7571 118.263 10.5789C118.608 10.3948 118.86 10.1454 119.02 9.8307C119.181 9.51003 119.261 9.14483 119.261 8.73509C119.261 8.33722 119.181 7.96608 119.02 7.62166C118.86 7.27724 118.608 6.99814 118.263 6.78436C117.925 6.57058 117.482 6.46369 116.936 6.46369H114.397V17.5H111.948V4.53078H116.936C117.946 4.53078 118.807 4.71189 119.519 5.07413C120.238 5.43043 120.784 5.92627 121.158 6.56167C121.538 7.19113 121.728 7.90966 121.728 8.71727C121.728 9.55457 121.538 10.2761 121.158 10.8818C120.784 11.4875 120.238 11.9536 119.519 12.2802C118.807 12.6068 117.946 12.7702 116.936 12.7702ZM126.88 3.81818V17.5H124.52V3.81818H126.88ZM135.773 15.2108V7.86216H138.143V17.5H135.916L135.773 15.2108ZM136.076 13.2155L136.807 13.1977C136.807 13.845 136.735 14.4418 136.593 14.9881C136.45 15.5344 136.228 16.0095 135.925 16.4133C135.628 16.8112 135.251 17.1229 134.794 17.3486C134.336 17.5683 133.796 17.6781 133.172 17.6781C132.697 17.6781 132.264 17.6128 131.872 17.4822C131.48 17.3456 131.142 17.1348 130.857 16.8498C130.577 16.5588 130.361 16.1876 130.206 15.7363C130.052 15.2791 129.975 14.7298 129.975 14.0885V7.86216H132.326V14.1063C132.326 14.4269 132.362 14.6942 132.433 14.9079C132.51 15.1217 132.614 15.2969 132.745 15.4335C132.881 15.5641 133.039 15.6591 133.217 15.7185C133.401 15.772 133.597 15.7987 133.805 15.7987C134.375 15.7987 134.823 15.6859 135.15 15.4602C135.482 15.2286 135.72 14.9198 135.863 14.5338C136.005 14.1419 136.076 13.7025 136.076 13.2155ZM146.439 14.8634C146.439 14.6615 146.386 14.4804 146.279 14.32C146.172 14.1597 145.97 14.0142 145.673 13.8836C145.382 13.747 144.955 13.6193 144.39 13.5006C143.892 13.3937 143.431 13.2601 143.01 13.0997C142.588 12.9394 142.226 12.7464 141.923 12.5207C141.62 12.2892 141.383 12.019 141.211 11.7102C141.044 11.3954 140.961 11.0332 140.961 10.6235C140.961 10.2256 141.047 9.85148 141.219 9.50112C141.392 9.14483 141.641 8.83307 141.968 8.56584C142.294 8.29268 142.692 8.0789 143.161 7.92451C143.63 7.76418 144.159 7.68401 144.747 7.68401C145.566 7.68401 146.27 7.81762 146.858 8.08484C147.452 8.35207 147.906 8.72024 148.221 9.18936C148.535 9.65255 148.693 10.1751 148.693 10.7571H146.341C146.341 10.5017 146.282 10.2701 146.163 10.0623C146.05 9.85445 145.875 9.68818 145.638 9.56348C145.4 9.43283 145.1 9.36751 144.738 9.36751C144.411 9.36751 144.135 9.42096 143.909 9.52785C143.69 9.63474 143.523 9.77429 143.411 9.9465C143.298 10.1187 143.241 10.3087 143.241 10.5166C143.241 10.671 143.271 10.8105 143.331 10.9352C143.396 11.054 143.5 11.1638 143.642 11.2648C143.785 11.3657 143.978 11.4578 144.221 11.5409C144.471 11.6241 144.776 11.7042 145.139 11.7814C145.857 11.9239 146.484 12.114 147.018 12.3515C147.559 12.5831 147.98 12.8919 148.283 13.2779C148.586 13.6639 148.737 14.1567 148.737 14.7565C148.737 15.1841 148.645 15.576 148.461 15.9323C148.277 16.2827 148.01 16.5885 147.66 16.8498C147.309 17.111 146.891 17.3159 146.404 17.4644C145.917 17.6069 145.367 17.6781 144.756 17.6781C143.871 17.6781 143.123 17.5208 142.511 17.2061C141.899 16.8854 141.436 16.4816 141.121 15.9946C140.807 15.5018 140.649 14.9911 140.649 14.4626H142.903C142.921 14.8367 143.022 15.1366 143.206 15.3622C143.39 15.5879 143.621 15.7512 143.901 15.8521C144.186 15.9471 144.486 15.9946 144.8 15.9946C145.157 15.9946 145.456 15.9471 145.7 15.8521C145.943 15.7512 146.127 15.6176 146.252 15.4513C146.377 15.2791 146.439 15.0831 146.439 14.8634Z"
                        fill="#313131" />
                    <path
                        d="M57.2348 36.5315L61.0561 25.5308H62.9178L58.1167 38.5H56.7894L57.2348 36.5315ZM53.6629 25.5308L57.4486 36.5315L57.9207 38.5H56.5935L51.8013 25.5308H53.6629ZM68.9338 38.6781C68.2628 38.6781 67.6541 38.5653 67.1078 38.3397C66.5674 38.1081 66.1013 37.7844 65.7094 37.3688C65.3234 36.9531 65.0264 36.4602 64.8186 35.8901C64.6108 35.32 64.5068 34.6965 64.5068 34.0196V33.6454C64.5068 32.8616 64.6226 32.1638 64.8542 31.5522C65.0858 30.9346 65.4006 30.4121 65.7984 29.9845C66.1963 29.5569 66.6476 29.2333 67.1524 29.0136C67.6571 28.7939 68.1797 28.684 68.7201 28.684C69.4089 28.684 70.0027 28.8028 70.5016 29.0403C71.0063 29.2778 71.419 29.6104 71.7397 30.0379C72.0604 30.4596 72.2979 30.9584 72.4523 31.5344C72.6067 32.1045 72.6839 32.728 72.6839 33.4049V34.1443H65.4867V32.7992H71.036V32.6745C71.0122 32.247 70.9232 31.8313 70.7688 31.4275C70.6203 31.0237 70.3828 30.6911 70.0562 30.4299C69.7296 30.1686 69.2842 30.0379 68.7201 30.0379C68.346 30.0379 68.0015 30.1181 67.6868 30.2784C67.3721 30.4328 67.1019 30.6644 66.8762 30.9732C66.6506 31.282 66.4754 31.6591 66.3507 32.1045C66.226 32.5498 66.1636 33.0635 66.1636 33.6454V34.0196C66.1636 34.4768 66.226 34.9073 66.3507 35.3111C66.4813 35.709 66.6684 36.0594 66.9119 36.3622C67.1613 36.6651 67.4611 36.9026 67.8115 37.0748C68.1678 37.247 68.5716 37.3331 69.0229 37.3331C69.6049 37.3331 70.0977 37.2144 70.5016 36.9768C70.9054 36.7393 71.2587 36.4216 71.5615 36.0237L72.5592 36.8165C72.3513 37.1312 72.0871 37.4311 71.7664 37.7161C71.4457 38.0012 71.0508 38.2328 70.5817 38.4109C70.1185 38.5891 69.5692 38.6781 68.9338 38.6781ZM77.1679 30.3764V38.5H75.52V28.8622H77.1233L77.1679 30.3764ZM80.1786 28.8087L80.1697 30.3408C80.0331 30.3111 79.9025 30.2933 79.7778 30.2873C79.659 30.2755 79.5224 30.2695 79.368 30.2695C78.988 30.2695 78.6524 30.3289 78.3615 30.4477C78.0705 30.5664 77.8241 30.7327 77.6222 30.9465C77.4203 31.1603 77.2599 31.4156 77.1412 31.7125C77.0283 32.0035 76.9541 32.3242 76.9185 32.6745L76.4553 32.9418C76.4553 32.3598 76.5117 31.8135 76.6245 31.3028C76.7433 30.7921 76.9244 30.3408 77.1679 29.9489C77.4113 29.551 77.7201 29.2422 78.0942 29.0225C78.4743 28.7968 78.9256 28.684 79.4482 28.684C79.5669 28.684 79.7035 28.6989 79.8579 28.7285C80.0123 28.7523 80.1192 28.779 80.1786 28.8087ZM85.2148 36.7898L87.6911 28.8622H88.7778L88.564 30.4388L86.0432 38.5H84.9833L85.2148 36.7898ZM83.5492 28.8622L85.6602 36.8788L85.8116 38.5H84.6982L81.9013 28.8622H83.5492ZM91.1472 36.8165L93.1603 28.8622H94.7992L92.0023 38.5H90.8978L91.1472 36.8165ZM89.0183 28.8622L91.4411 36.6562L91.7173 38.5H90.6662L88.0741 30.421L87.8604 28.8622H89.0183ZM103.087 36.8521V31.8907C103.087 31.5106 103.01 31.1811 102.855 30.902C102.707 30.6169 102.481 30.3972 102.178 30.2428C101.875 30.0884 101.501 30.0112 101.056 30.0112C100.64 30.0112 100.275 30.0825 99.9602 30.225C99.6514 30.3675 99.408 30.5546 99.2298 30.7862C99.0576 31.0178 98.9715 31.2672 98.9715 31.5344H97.3236C97.3236 31.19 97.4127 30.8485 97.5908 30.51C97.769 30.1715 98.0243 29.8657 98.3569 29.5926C98.6954 29.3135 99.0992 29.0938 99.5683 28.9334C100.043 28.7671 100.572 28.684 101.154 28.684C101.855 28.684 102.472 28.8028 103.007 29.0403C103.547 29.2778 103.969 29.6371 104.271 30.1181C104.58 30.5932 104.735 31.19 104.735 31.9085V36.3978C104.735 36.7185 104.761 37.06 104.815 37.4222C104.874 37.7844 104.96 38.0962 105.073 38.3575V38.5H103.354C103.271 38.31 103.205 38.0576 103.158 37.7429C103.11 37.4222 103.087 37.1253 103.087 36.8521ZM103.372 32.6567L103.39 33.8147H101.724C101.255 33.8147 100.836 33.8533 100.468 33.9305C100.1 34.0017 99.791 34.1116 99.5416 34.2601C99.2922 34.4085 99.1021 34.5956 98.9715 34.8212C98.8408 35.0409 98.7755 35.2993 98.7755 35.5962C98.7755 35.899 98.8438 36.1752 98.9804 36.4246C99.117 36.674 99.3219 36.8729 99.595 37.0214C99.8741 37.1639 100.216 37.2351 100.619 37.2351C101.124 37.2351 101.569 37.1283 101.955 36.9145C102.341 36.7007 102.647 36.4394 102.873 36.1306C103.105 35.8218 103.229 35.5219 103.247 35.231L103.951 36.0237C103.909 36.2731 103.796 36.5493 103.612 36.8521C103.428 37.155 103.182 37.446 102.873 37.7251C102.57 37.9982 102.208 38.2268 101.786 38.4109C101.371 38.5891 100.901 38.6781 100.379 38.6781C99.7257 38.6781 99.1526 38.5505 98.6597 38.2951C98.1728 38.0398 97.7927 37.6983 97.5196 37.2708C97.2524 36.8373 97.1187 36.3533 97.1187 35.8189C97.1187 35.3022 97.2197 34.848 97.4216 34.456C97.6235 34.0582 97.9145 33.7286 98.2945 33.4673C98.6746 33.2001 99.1318 32.9982 99.6663 32.8616C100.201 32.725 100.798 32.6567 101.457 32.6567H103.372ZM110.029 24.8182V38.5H108.372V24.8182H110.029ZM117.622 28.8622V30.127H112.411V28.8622H117.622ZM114.175 26.5195H115.823V36.1128C115.823 36.4394 115.873 36.6859 115.974 36.8521C116.075 37.0184 116.206 37.1283 116.366 37.1817C116.526 37.2351 116.698 37.2619 116.883 37.2619C117.019 37.2619 117.162 37.25 117.31 37.2262C117.465 37.1965 117.58 37.1728 117.658 37.155L117.666 38.5C117.536 38.5416 117.364 38.5802 117.15 38.6158C116.942 38.6574 116.69 38.6781 116.393 38.6781C115.989 38.6781 115.618 38.598 115.279 38.4376C114.941 38.2773 114.671 38.0101 114.469 37.636C114.273 37.2559 114.175 36.7452 114.175 36.1039V26.5195ZM126.364 36.2731V28.8622H128.02V38.5H126.444L126.364 36.2731ZM126.675 34.2422L127.361 34.2244C127.361 34.8658 127.293 35.4596 127.156 36.0059C127.026 36.5463 126.812 37.0154 126.515 37.4133C126.218 37.8112 125.829 38.1229 125.348 38.3486C124.867 38.5683 124.282 38.6781 123.593 38.6781C123.124 38.6781 122.694 38.6099 122.302 38.4733C121.916 38.3367 121.583 38.1259 121.304 37.8408C121.025 37.5558 120.808 37.1847 120.654 36.7274C120.506 36.2702 120.431 35.7209 120.431 35.0795V28.8622H122.079V35.0974C122.079 35.5309 122.127 35.8901 122.222 36.1752C122.323 36.4543 122.456 36.6769 122.623 36.8432C122.795 37.0036 122.985 37.1164 123.193 37.1817C123.406 37.247 123.626 37.2797 123.852 37.2797C124.552 37.2797 125.108 37.1461 125.517 36.8788C125.927 36.6057 126.221 36.2405 126.399 35.7832C126.583 35.32 126.675 34.8064 126.675 34.2422ZM133.092 30.9198V38.5H131.444V28.8622H133.003L133.092 30.9198ZM132.7 33.3159L132.015 33.2892C132.02 32.63 132.118 32.0213 132.308 31.4631C132.498 30.899 132.766 30.4091 133.11 29.9934C133.455 29.5777 133.864 29.2571 134.339 29.0314C134.82 28.7998 135.352 28.684 135.934 28.684C136.409 28.684 136.836 28.7493 137.216 28.88C137.596 29.0047 137.92 29.2066 138.187 29.4857C138.461 29.7648 138.668 30.127 138.811 30.5724C138.953 31.0118 139.025 31.5492 139.025 32.1846V38.5H137.368V32.1668C137.368 31.6621 137.294 31.2583 137.145 30.9554C136.997 30.6466 136.78 30.4239 136.495 30.2873C136.21 30.1448 135.86 30.0736 135.444 30.0736C135.034 30.0736 134.66 30.1597 134.322 30.3319C133.989 30.5041 133.701 30.7416 133.458 31.0445C133.22 31.3473 133.033 31.6947 132.896 32.0866C132.766 32.4726 132.7 32.8824 132.7 33.3159ZM148.684 28.8622H150.18V38.2951C150.18 39.1443 150.008 39.8688 149.664 40.4685C149.319 41.0683 148.838 41.5226 148.221 41.8314C147.609 42.1461 146.902 42.3035 146.101 42.3035C145.768 42.3035 145.376 42.25 144.925 42.1431C144.48 42.0422 144.04 41.867 143.607 41.6176C143.179 41.3741 142.82 41.0446 142.529 40.6289L143.393 39.6491C143.797 40.136 144.218 40.4745 144.658 40.6645C145.103 40.8545 145.543 40.9495 145.976 40.9495C146.499 40.9495 146.95 40.8516 147.33 40.6556C147.71 40.4596 148.004 40.1687 148.212 39.7827C148.426 39.4026 148.532 38.9335 148.532 38.3753V30.9821L148.684 28.8622ZM142.048 33.788V33.6009C142.048 32.8646 142.134 32.1965 142.306 31.5967C142.484 30.991 142.737 30.4714 143.063 30.0379C143.396 29.6044 143.797 29.2719 144.266 29.0403C144.735 28.8028 145.263 28.684 145.851 28.684C146.457 28.684 146.986 28.7909 147.437 29.0047C147.894 29.2125 148.28 29.5183 148.595 29.9221C148.915 30.32 149.168 30.801 149.352 31.3651C149.536 31.9293 149.664 32.5676 149.735 33.2802V34.0997C149.67 34.8064 149.542 35.4418 149.352 36.0059C149.168 36.5701 148.915 37.0511 148.595 37.4489C148.28 37.8468 147.894 38.1526 147.437 38.3664C146.98 38.5742 146.445 38.6781 145.833 38.6781C145.257 38.6781 144.735 38.5564 144.266 38.3129C143.803 38.0695 143.405 37.728 143.072 37.2886C142.74 36.8492 142.484 36.3325 142.306 35.7387C142.134 35.1389 142.048 34.4887 142.048 33.788ZM143.696 33.6009V33.788C143.696 34.269 143.743 34.7203 143.838 35.1419C143.939 35.5635 144.091 35.9347 144.293 36.2553C144.5 36.576 144.765 36.8284 145.085 37.0125C145.406 37.1906 145.789 37.2797 146.234 37.2797C146.781 37.2797 147.232 37.1639 147.588 36.9323C147.945 36.7007 148.227 36.3949 148.434 36.0148C148.648 35.6348 148.815 35.2221 148.933 34.7767V32.63C148.868 32.3034 148.767 31.9887 148.63 31.6858C148.5 31.377 148.328 31.1039 148.114 30.8663C147.906 30.6229 147.648 30.4299 147.339 30.2873C147.03 30.1448 146.668 30.0736 146.252 30.0736C145.801 30.0736 145.412 30.1686 145.085 30.3586C144.765 30.5427 144.5 30.798 144.293 31.1246C144.091 31.4453 143.939 31.8194 143.838 32.247C143.743 32.6686 143.696 33.1199 143.696 33.6009ZM159.207 35.9436C159.207 35.706 159.154 35.4863 159.047 35.2844C158.946 35.0766 158.735 34.8895 158.414 34.7232C158.1 34.551 157.625 34.4026 156.989 34.2779C156.455 34.165 155.971 34.0314 155.537 33.877C155.11 33.7226 154.744 33.5356 154.442 33.3159C154.145 33.0962 153.916 32.8378 153.756 32.5409C153.595 32.244 153.515 31.8966 153.515 31.4988C153.515 31.1187 153.598 30.7594 153.765 30.421C153.937 30.0825 154.177 29.7826 154.486 29.5213C154.801 29.26 155.178 29.0552 155.617 28.9067C156.057 28.7582 156.547 28.684 157.087 28.684C157.859 28.684 158.518 28.8206 159.065 29.0938C159.611 29.3669 160.03 29.7321 160.321 30.1894C160.612 30.6407 160.757 31.1425 160.757 31.6947H159.109C159.109 31.4275 159.029 31.1692 158.869 30.9198C158.714 30.6644 158.486 30.4536 158.183 30.2873C157.886 30.1211 157.521 30.0379 157.087 30.0379C156.63 30.0379 156.259 30.1092 155.974 30.2517C155.695 30.3883 155.49 30.5635 155.359 30.7773C155.234 30.991 155.172 31.2167 155.172 31.4542C155.172 31.6324 155.202 31.7927 155.261 31.9352C155.326 32.0718 155.439 32.1995 155.6 32.3182C155.76 32.4311 155.986 32.538 156.277 32.6389C156.568 32.7399 156.939 32.8408 157.39 32.9418C158.18 33.1199 158.83 33.3337 159.341 33.5831C159.851 33.8325 160.231 34.1383 160.481 34.5006C160.73 34.8628 160.855 35.3022 160.855 35.8189C160.855 36.2405 160.766 36.6265 160.588 36.9768C160.416 37.3272 160.163 37.63 159.831 37.8854C159.504 38.1348 159.112 38.3308 158.655 38.4733C158.204 38.6099 157.696 38.6781 157.132 38.6781C156.283 38.6781 155.564 38.5267 154.976 38.2239C154.388 37.921 153.943 37.5291 153.64 37.0481C153.337 36.5671 153.186 36.0594 153.186 35.5249H154.842C154.866 35.9762 154.997 36.3355 155.234 36.6027C155.472 36.864 155.763 37.0511 156.107 37.1639C156.452 37.2708 156.793 37.3242 157.132 37.3242C157.583 37.3242 157.96 37.2648 158.263 37.1461C158.572 37.0273 158.806 36.864 158.967 36.6562C159.127 36.4483 159.207 36.2108 159.207 35.9436ZM167.789 37.3242C168.18 37.3242 168.543 37.2441 168.875 37.0837C169.208 36.9234 169.481 36.7037 169.695 36.4246C169.909 36.1395 170.03 35.8159 170.06 35.4537H171.628C171.598 36.0237 171.405 36.5552 171.049 37.0481C170.698 37.535 170.238 37.9299 169.668 38.2328C169.098 38.5297 168.471 38.6781 167.789 38.6781C167.064 38.6781 166.432 38.5505 165.891 38.2951C165.357 38.0398 164.911 37.6894 164.555 37.2441C164.205 36.7987 163.941 36.288 163.762 35.712C163.59 35.13 163.504 34.5154 163.504 33.8681V33.494C163.504 32.8467 163.59 32.2351 163.762 31.6591C163.941 31.0771 164.205 30.5635 164.555 30.1181C164.911 29.6727 165.357 29.3224 165.891 29.067C166.432 28.8117 167.064 28.684 167.789 28.684C168.543 28.684 169.202 28.8384 169.766 29.1472C170.33 29.45 170.773 29.8657 171.093 30.3942C171.42 30.9168 171.598 31.5106 171.628 32.1757H170.06C170.03 31.7779 169.917 31.4186 169.721 31.0979C169.531 30.7773 169.27 30.5219 168.938 30.3319C168.611 30.1359 168.228 30.0379 167.789 30.0379C167.284 30.0379 166.859 30.1389 166.515 30.3408C166.176 30.5368 165.906 30.804 165.704 31.1425C165.508 31.475 165.366 31.8461 165.277 32.2559C165.194 32.6597 165.152 33.0724 165.152 33.494V33.8681C165.152 34.2898 165.194 34.7054 165.277 35.1152C165.36 35.5249 165.499 35.8961 165.695 36.2286C165.897 36.5611 166.167 36.8284 166.506 37.0303C166.85 37.2262 167.278 37.3242 167.789 37.3242ZM178.392 38.6781C177.721 38.6781 177.112 38.5653 176.566 38.3397C176.026 38.1081 175.559 37.7844 175.167 37.3688C174.781 36.9531 174.485 36.4602 174.277 35.8901C174.069 35.32 173.965 34.6965 173.965 34.0196V33.6454C173.965 32.8616 174.081 32.1638 174.312 31.5522C174.544 30.9346 174.859 30.4121 175.257 29.9845C175.654 29.5569 176.106 29.2333 176.61 29.0136C177.115 28.7939 177.638 28.684 178.178 28.684C178.867 28.684 179.461 28.8028 179.96 29.0403C180.464 29.2778 180.877 29.6104 181.198 30.0379C181.518 30.4596 181.756 30.9584 181.91 31.5344C182.065 32.1045 182.142 32.728 182.142 33.4049V34.1443H174.945V32.7992H180.494V32.6745C180.47 32.247 180.381 31.8313 180.227 31.4275C180.078 31.0237 179.841 30.6911 179.514 30.4299C179.188 30.1686 178.742 30.0379 178.178 30.0379C177.804 30.0379 177.46 30.1181 177.145 30.2784C176.83 30.4328 176.56 30.6644 176.334 30.9732C176.109 31.282 175.934 31.6591 175.809 32.1045C175.684 32.5498 175.622 33.0635 175.622 33.6454V34.0196C175.622 34.4768 175.684 34.9073 175.809 35.3111C175.939 35.709 176.126 36.0594 176.37 36.3622C176.619 36.6651 176.919 36.9026 177.27 37.0748C177.626 37.247 178.03 37.3331 178.481 37.3331C179.063 37.3331 179.556 37.2144 179.96 36.9768C180.363 36.7393 180.717 36.4216 181.02 36.0237L182.017 36.8165C181.809 37.1312 181.545 37.4311 181.225 37.7161C180.904 38.0012 180.509 38.2328 180.04 38.4109C179.577 38.5891 179.027 38.6781 178.392 38.6781ZM186.626 30.9198V38.5H184.978V28.8622H186.537L186.626 30.9198ZM186.234 33.3159L185.548 33.2892C185.554 32.63 185.652 32.0213 185.842 31.4631C186.032 30.899 186.299 30.4091 186.644 29.9934C186.988 29.5777 187.398 29.2571 187.873 29.0314C188.354 28.7998 188.885 28.684 189.467 28.684C189.943 28.684 190.37 28.7493 190.75 28.88C191.13 29.0047 191.454 29.2066 191.721 29.4857C191.994 29.7648 192.202 30.127 192.345 30.5724C192.487 31.0118 192.558 31.5492 192.558 32.1846V38.5H190.902V32.1668C190.902 31.6621 190.827 31.2583 190.679 30.9554C190.53 30.6466 190.314 30.4239 190.029 30.2873C189.744 30.1448 189.393 30.0736 188.978 30.0736C188.568 30.0736 188.194 30.1597 187.855 30.3319C187.523 30.5041 187.235 30.7416 186.991 31.0445C186.754 31.3473 186.567 31.6947 186.43 32.0866C186.299 32.4726 186.234 32.8824 186.234 33.3159ZM200.009 28.8622V30.127H194.798V28.8622H200.009ZM196.561 26.5195H198.209V36.1128C198.209 36.4394 198.26 36.6859 198.361 36.8521C198.462 37.0184 198.592 37.1283 198.753 37.1817C198.913 37.2351 199.085 37.2619 199.269 37.2619C199.406 37.2619 199.548 37.25 199.697 37.2262C199.851 37.1965 199.967 37.1728 200.044 37.155L200.053 38.5C199.922 38.5416 199.75 38.5802 199.536 38.6158C199.329 38.6574 199.076 38.6781 198.779 38.6781C198.375 38.6781 198.004 38.598 197.666 38.4376C197.327 38.2773 197.057 38.0101 196.855 37.636C196.659 37.2559 196.561 36.7452 196.561 36.1039V26.5195ZM206.853 38.6781C206.182 38.6781 205.573 38.5653 205.027 38.3397C204.487 38.1081 204.02 37.7844 203.628 37.3688C203.243 36.9531 202.946 36.4602 202.738 35.8901C202.53 35.32 202.426 34.6965 202.426 34.0196V33.6454C202.426 32.8616 202.542 32.1638 202.773 31.5522C203.005 30.9346 203.32 30.4121 203.718 29.9845C204.115 29.5569 204.567 29.2333 205.071 29.0136C205.576 28.7939 206.099 28.684 206.639 28.684C207.328 28.684 207.922 28.8028 208.421 29.0403C208.925 29.2778 209.338 29.6104 209.659 30.0379C209.979 30.4596 210.217 30.9584 210.371 31.5344C210.526 32.1045 210.603 32.728 210.603 33.4049V34.1443H203.406V32.7992H208.955V32.6745C208.931 32.247 208.842 31.8313 208.688 31.4275C208.539 31.0237 208.302 30.6911 207.975 30.4299C207.649 30.1686 207.203 30.0379 206.639 30.0379C206.265 30.0379 205.921 30.1181 205.606 30.2784C205.291 30.4328 205.021 30.6644 204.795 30.9732C204.57 31.282 204.395 31.6591 204.27 32.1045C204.145 32.5498 204.083 33.0635 204.083 33.6454V34.0196C204.083 34.4768 204.145 34.9073 204.27 35.3111C204.4 35.709 204.588 36.0594 204.831 36.3622C205.08 36.6651 205.38 36.9026 205.731 37.0748C206.087 37.247 206.491 37.3331 206.942 37.3331C207.524 37.3331 208.017 37.2144 208.421 36.9768C208.824 36.7393 209.178 36.4216 209.481 36.0237L210.478 36.8165C210.27 37.1312 210.006 37.4311 209.686 37.7161C209.365 38.0012 208.97 38.2328 208.501 38.4109C208.038 38.5891 207.488 38.6781 206.853 38.6781ZM215.087 30.3764V38.5H213.439V28.8622H215.042L215.087 30.3764ZM218.098 28.8087L218.089 30.3408C217.952 30.3111 217.822 30.2933 217.697 30.2873C217.578 30.2755 217.442 30.2695 217.287 30.2695C216.907 30.2695 216.572 30.3289 216.281 30.4477C215.99 30.5664 215.743 30.7327 215.541 30.9465C215.339 31.1603 215.179 31.4156 215.06 31.7125C214.947 32.0035 214.873 32.3242 214.838 32.6745L214.374 32.9418C214.374 32.3598 214.431 31.8135 214.544 31.3028C214.662 30.7921 214.844 30.3408 215.087 29.9489C215.33 29.551 215.639 29.2422 216.013 29.0225C216.393 28.7968 216.845 28.684 217.367 28.684C217.486 28.684 217.623 28.6989 217.777 28.7285C217.931 28.7523 218.038 28.779 218.098 28.8087Z"
                        fill="#313131" />
                </svg>
