<svg width="24" height="22" viewBox="0 0 24 22" fill="none" xmlns="http://www.w3.org/2000/svg">
<path d="M20.75 0.375H3.25C1.80025 0.375 0.625 1.55025 0.625 3V15.25C0.625 16.6997 1.80025 17.875 3.25 17.875H20.75C22.1997 17.875 23.375 16.6997 23.375 15.25V3C23.375 1.55025 22.1997 0.375 20.75 0.375Z" fill="#313131"/>
<path d="M15.5 19.625H8.5C8.26794 19.625 8.04538 19.7172 7.88128 19.8813C7.71719 20.0454 7.625 20.2679 7.625 20.5C7.625 20.7321 7.71719 20.9546 7.88128 21.1187C8.04538 21.2828 8.26794 21.375 8.5 21.375H15.5C15.7321 21.375 15.9546 21.2828 16.1187 21.1187C16.2828 20.9546 16.375 20.7321 16.375 20.5C16.375 20.2679 16.2828 20.0454 16.1187 19.8813C15.9546 19.7172 15.7321 19.625 15.5 19.625Z" fill="#313131"/>
</svg>
