<svg width="24" height="20" viewBox="0 0 24 20" fill="none" xmlns="http://www.w3.org/2000/svg">
<path d="M23.7075 10.7061L14.7075 19.7061C14.5199 19.8937 14.2654 19.9992 14 19.9992C13.7346 19.9992 13.4801 19.8937 13.2925 19.7061C13.1049 19.5185 12.9994 19.264 12.9994 18.9986C12.9994 18.7332 13.1049 18.4787 13.2925 18.2911L20.5862 10.9986H1C0.734783 10.9986 0.48043 10.8932 0.292893 10.7057C0.105357 10.5182 0 10.2638 0 9.9986C0 9.73339 0.105357 9.47903 0.292893 9.2915C0.48043 9.10396 0.734783 8.9986 1 8.9986H20.5862L13.2925 1.7061C13.1049 1.51846 12.9994 1.26397 12.9994 0.998603C12.9994 0.733239 13.1049 0.478743 13.2925 0.291103C13.4801 0.103462 13.7346 -0.00195312 14 -0.00195312C14.2654 -0.00195312 14.5199 0.103462 14.7075 0.291103L23.7075 9.2911C23.8005 9.38397 23.8742 9.49426 23.9246 9.61566C23.9749 9.73706 24.0008 9.86719 24.0008 9.9986C24.0008 10.13 23.9749 10.2601 23.9246 10.3815C23.8742 10.5029 23.8005 10.6132 23.7075 10.7061Z" fill="#313131"/>
</svg>
