<svg width="17" height="17" viewBox="0 0 17 17" fill="none" xmlns="http://www.w3.org/2000/svg">
<path d="M8.69962 0.664062C7.09875 0.664063 5.53383 1.13878 4.20275 2.02817C2.87168 2.91757 1.83423 4.1817 1.2216 5.66071C0.608976 7.13972 0.448685 8.76719 0.760999 10.3373C1.07331 11.9074 1.84421 13.3496 2.97619 14.4816C4.10818 15.6136 5.55042 16.3845 7.12053 16.6968C8.69064 17.0091 10.3181 16.8489 11.7971 16.2362C13.2761 15.6236 14.5403 14.5861 15.4297 13.2551C16.3191 11.924 16.7938 10.3591 16.7938 8.75821C16.7915 6.6122 15.938 4.55474 14.4205 3.03729C12.9031 1.51983 10.8456 0.666329 8.69962 0.664062ZM12.2533 7.33084L7.89487 11.6892C7.83705 11.7471 7.76838 11.793 7.69279 11.8244C7.61721 11.8557 7.53619 11.8718 7.45436 11.8718C7.37254 11.8718 7.29152 11.8557 7.21594 11.8244C7.14035 11.793 7.07168 11.7471 7.01386 11.6892L5.14598 9.82134C5.02915 9.70451 4.96351 9.54606 4.96351 9.38083C4.96351 9.21561 5.02915 9.05716 5.14598 8.94033C5.26281 8.8235 5.42126 8.75786 5.58649 8.75786C5.75171 8.75786 5.91016 8.8235 6.02699 8.94033L7.45436 10.3685L11.3722 6.44982C11.4301 6.39197 11.4988 6.34608 11.5743 6.31478C11.6499 6.28347 11.7309 6.26736 11.8128 6.26736C11.8946 6.26736 11.9756 6.28347 12.0512 6.31478C12.1267 6.34608 12.1954 6.39197 12.2533 6.44982C12.3111 6.50767 12.357 6.57634 12.3883 6.65193C12.4196 6.72751 12.4357 6.80852 12.4357 6.89033C12.4357 6.97214 12.4196 7.05315 12.3883 7.12873C12.357 7.20431 12.3111 7.27299 12.2533 7.33084Z" fill="#2E8305"/>
</svg>
